# xmcd CD database file
# Copyright (C) 1997 Ti Kan
#
# Track frame offsets:
#  182
#  14582
#  27962
#  43577
#  55157
#  65675
#  76080
#  92527
#  105950
#  116810
#  131307
#
# Disc length: 1934 seconds
#
# Revision: 1
# Processed by: cddbd v1.5.2PL0 Copyright (c) Steve Scherf et al.
# Submitted via: CDWizzard Release:4.30
#
DISCID=83078c0b
DTITLE=Supremes - The Supremes Sing Country Western and Pop
DYEAR=2004
DGENRE=Country
TTITLE0=Funny How Time Slips Away
TTITLE1=My Heart Can't Take It No More
TTITLE2=It Makes No Difference Now
TTITLE3=You Didn't Care
TTITLE4=Tears in Vain
TTITLE5=Tumbling Tumbleweeds
TTITLE6=Lazy Bones
TTITLE7=You Need Me
TTITLE8=Baby Doll
TTITLE9=Sunset
TTITLE10=(The Man With The)Rock and Roll Banjo Band
EXTD=
EXTT0=
EXTT1=
EXTT2=
EXTT3=
EXTT4=
EXTT5=
EXTT6=
EXTT7=
EXTT8=
EXTT9=
EXTT10=
PLAYORDER=
